<?xml version="1.0" encoding="UTF-8" standalone="no"?>
<!DOCTYPE svg PUBLIC "-//W3C//DTD SVG 1.1//EN"
 "http://www.w3.org/Graphics/SVG/1.1/DTD/svg11.dtd">
<!-- Generated by graphviz version 2.47.3 (20210619.1520)
 -->
<!-- Title: dependencies Pages: 1 -->
<svg width="392pt" height="174pt"
 viewBox="0.00 0.00 392.00 173.80" xmlns="http://www.w3.org/2000/svg" xmlns:xlink="http://www.w3.org/1999/xlink">
<g id="graph0" class="graph" transform="scale(1 1) rotate(0) translate(4 169.8)">
<title>dependencies</title>
<polygon fill="white" stroke="transparent" points="-4,4 -4,-169.8 388,-169.8 388,4 -4,4"/>
<text text-anchor="middle" x="192" y="-8.2" font-family="sans-serif" font-size="14.00">dependencies</text>
<g id="clust1" class="cluster">
<title>cluster_SettingsModule</title>
<polygon fill="none" stroke="black" stroke-dasharray="1,5" points="8,-32.8 8,-157.8 376,-157.8 376,-32.8 8,-32.8"/>
</g>
<g id="clust2" class="cluster">
<title>cluster_SettingsModule_declarations</title>
<polygon fill="none" stroke="black" points="190,-40.8 190,-92.8 368,-92.8 368,-40.8 190,-40.8"/>
</g>
<g id="clust4" class="cluster">
<title>cluster_SettingsModule_imports</title>
<polygon fill="none" stroke="black" points="16,-40.8 16,-92.8 182,-92.8 182,-40.8 16,-40.8"/>
</g>
<!-- ChangeColorsComponent -->
<g id="node1" class="node">
<title>ChangeColorsComponent</title>
<polygon fill="#ffffb3" stroke="black" points="359.93,-84.8 198.07,-84.8 198.07,-48.8 359.93,-48.8 359.93,-84.8"/>
<text text-anchor="middle" x="279" y="-62.6" font-family="Times,serif" font-size="14.00">ChangeColorsComponent</text>
</g>
<!-- SettingsModule -->
<g id="node2" class="node">
<title>SettingsModule</title>
<polygon fill="#8dd3c7" stroke="black" points="241.16,-149.8 238.16,-153.8 217.16,-153.8 214.16,-149.8 136.84,-149.8 136.84,-113.8 241.16,-113.8 241.16,-149.8"/>
<text text-anchor="middle" x="189" y="-127.6" font-family="Times,serif" font-size="14.00">SettingsModule</text>
</g>
<!-- ChangeColorsComponent&#45;&gt;SettingsModule -->
<g id="edge1" class="edge">
<title>ChangeColorsComponent&#45;&gt;SettingsModule</title>
<path fill="none" stroke="black" d="M219.81,-84.91C219.81,-84.91 219.81,-103.79 219.81,-103.79"/>
<polygon fill="black" stroke="black" points="216.31,-103.79 219.81,-113.79 223.31,-103.79 216.31,-103.79"/>
</g>
<!-- SettingsRoutingModule -->
<g id="node3" class="node">
<title>SettingsRoutingModule</title>
<polygon fill="#8dd3c7" stroke="black" points="173.78,-84.8 170.78,-88.8 149.78,-88.8 146.78,-84.8 24.22,-84.8 24.22,-48.8 173.78,-48.8 173.78,-84.8"/>
<text text-anchor="middle" x="99" y="-62.6" font-family="Times,serif" font-size="14.00">SettingsRoutingModule</text>
</g>
<!-- SettingsRoutingModule&#45;&gt;SettingsModule -->
<g id="edge2" class="edge">
<title>SettingsRoutingModule&#45;&gt;SettingsModule</title>
<path fill="none" stroke="black" d="M155.28,-84.91C155.28,-84.91 155.28,-103.79 155.28,-103.79"/>
<polygon fill="black" stroke="black" points="151.78,-103.79 155.28,-113.79 158.78,-103.79 151.78,-103.79"/>
</g>
</g>
</svg>
