<?xml version="1.0" encoding="UTF-8" standalone="no"?>
<!DOCTYPE svg PUBLIC "-//W3C//DTD SVG 1.1//EN"
 "http://www.w3.org/Graphics/SVG/1.1/DTD/svg11.dtd">
<!-- Generated by graphviz version 2.47.3 (20210619.1520)
 -->
<!-- Title: dependencies Pages: 1 -->
<svg width="348pt" height="174pt"
 viewBox="0.00 0.00 348.00 173.80" xmlns="http://www.w3.org/2000/svg" xmlns:xlink="http://www.w3.org/1999/xlink">
<g id="graph0" class="graph" transform="scale(1 1) rotate(0) translate(4 169.8)">
<title>dependencies</title>
<polygon fill="white" stroke="transparent" points="-4,4 -4,-169.8 344,-169.8 344,4 -4,4"/>
<text text-anchor="middle" x="170" y="-8.2" font-family="sans-serif" font-size="14.00">dependencies</text>
<g id="clust1" class="cluster">
<title>cluster_CvModule</title>
<polygon fill="none" stroke="black" stroke-dasharray="1,5" points="8,-32.8 8,-157.8 332,-157.8 332,-32.8 8,-32.8"/>
</g>
<g id="clust4" class="cluster">
<title>cluster_CvModule_imports</title>
<polygon fill="none" stroke="black" points="186,-40.8 186,-92.8 324,-92.8 324,-40.8 186,-40.8"/>
</g>
<g id="clust2" class="cluster">
<title>cluster_CvModule_declarations</title>
<polygon fill="none" stroke="black" points="16,-40.8 16,-92.8 178,-92.8 178,-40.8 16,-40.8"/>
</g>
<!-- CvWrapperComponent -->
<g id="node1" class="node">
<title>CvWrapperComponent</title>
<polygon fill="#ffffb3" stroke="black" points="170.13,-84.8 23.87,-84.8 23.87,-48.8 170.13,-48.8 170.13,-84.8"/>
<text text-anchor="middle" x="97" y="-62.6" font-family="Times,serif" font-size="14.00">CvWrapperComponent</text>
</g>
<!-- CvModule -->
<g id="node2" class="node">
<title>CvModule</title>
<polygon fill="#8dd3c7" stroke="black" points="213.89,-149.8 210.89,-153.8 189.89,-153.8 186.89,-149.8 138.11,-149.8 138.11,-113.8 213.89,-113.8 213.89,-149.8"/>
<text text-anchor="middle" x="176" y="-127.6" font-family="Times,serif" font-size="14.00">CvModule</text>
</g>
<!-- CvWrapperComponent&#45;&gt;CvModule -->
<g id="edge1" class="edge">
<title>CvWrapperComponent&#45;&gt;CvModule</title>
<path fill="none" stroke="black" d="M154.19,-84.91C154.19,-84.91 154.19,-103.79 154.19,-103.79"/>
<polygon fill="black" stroke="black" points="150.69,-103.79 154.19,-113.79 157.69,-103.79 150.69,-103.79"/>
</g>
<!-- CvRoutingModule -->
<g id="node3" class="node">
<title>CvRoutingModule</title>
<polygon fill="#8dd3c7" stroke="black" points="315.5,-84.8 312.5,-88.8 291.5,-88.8 288.5,-84.8 194.5,-84.8 194.5,-48.8 315.5,-48.8 315.5,-84.8"/>
<text text-anchor="middle" x="255" y="-62.6" font-family="Times,serif" font-size="14.00">CvRoutingModule</text>
</g>
<!-- CvRoutingModule&#45;&gt;CvModule -->
<g id="edge2" class="edge">
<title>CvRoutingModule&#45;&gt;CvModule</title>
<path fill="none" stroke="black" d="M204.22,-84.91C204.22,-84.91 204.22,-103.79 204.22,-103.79"/>
<polygon fill="black" stroke="black" points="200.72,-103.79 204.22,-113.79 207.72,-103.79 200.72,-103.79"/>
</g>
</g>
</svg>
