<?xml version="1.0" encoding="UTF-8" standalone="no"?>
<!DOCTYPE svg PUBLIC "-//W3C//DTD SVG 1.1//EN"
 "http://www.w3.org/Graphics/SVG/1.1/DTD/svg11.dtd">
<!-- Generated by graphviz version 2.47.3 (20210619.1520)
 -->
<!-- Title: dependencies Pages: 1 -->
<svg width="382pt" height="174pt"
 viewBox="0.00 0.00 382.00 173.80" xmlns="http://www.w3.org/2000/svg" xmlns:xlink="http://www.w3.org/1999/xlink">
<g id="graph0" class="graph" transform="scale(1 1) rotate(0) translate(4 169.8)">
<title>dependencies</title>
<polygon fill="white" stroke="transparent" points="-4,4 -4,-169.8 378,-169.8 378,4 -4,4"/>
<text text-anchor="middle" x="187" y="-8.2" font-family="sans-serif" font-size="14.00">dependencies</text>
<g id="clust1" class="cluster">
<title>cluster_HomeModule</title>
<polygon fill="none" stroke="black" stroke-dasharray="1,5" points="8,-32.8 8,-157.8 366,-157.8 366,-32.8 8,-32.8"/>
</g>
<g id="clust2" class="cluster">
<title>cluster_HomeModule_declarations</title>
<polygon fill="none" stroke="black" points="178,-40.8 178,-92.8 358,-92.8 358,-40.8 178,-40.8"/>
</g>
<g id="clust4" class="cluster">
<title>cluster_HomeModule_imports</title>
<polygon fill="none" stroke="black" points="16,-40.8 16,-92.8 170,-92.8 170,-40.8 16,-40.8"/>
</g>
<!-- HomeWrapperComponent -->
<g id="node1" class="node">
<title>HomeWrapperComponent</title>
<polygon fill="#ffffb3" stroke="black" points="350.01,-84.8 185.99,-84.8 185.99,-48.8 350.01,-48.8 350.01,-84.8"/>
<text text-anchor="middle" x="268" y="-62.6" font-family="Times,serif" font-size="14.00">HomeWrapperComponent</text>
</g>
<!-- HomeModule -->
<g id="node2" class="node">
<title>HomeModule</title>
<polygon fill="#8dd3c7" stroke="black" points="226.76,-149.8 223.76,-153.8 202.76,-153.8 199.76,-149.8 133.24,-149.8 133.24,-113.8 226.76,-113.8 226.76,-149.8"/>
<text text-anchor="middle" x="180" y="-127.6" font-family="Times,serif" font-size="14.00">HomeModule</text>
</g>
<!-- HomeWrapperComponent&#45;&gt;HomeModule -->
<g id="edge1" class="edge">
<title>HomeWrapperComponent&#45;&gt;HomeModule</title>
<path fill="none" stroke="black" d="M206.31,-84.91C206.31,-84.91 206.31,-103.79 206.31,-103.79"/>
<polygon fill="black" stroke="black" points="202.81,-103.79 206.31,-113.79 209.81,-103.79 202.81,-103.79"/>
</g>
<!-- HomeRoutingModule -->
<g id="node3" class="node">
<title>HomeRoutingModule</title>
<polygon fill="#8dd3c7" stroke="black" points="162.38,-84.8 159.38,-88.8 138.38,-88.8 135.38,-84.8 23.62,-84.8 23.62,-48.8 162.38,-48.8 162.38,-84.8"/>
<text text-anchor="middle" x="93" y="-62.6" font-family="Times,serif" font-size="14.00">HomeRoutingModule</text>
</g>
<!-- HomeRoutingModule&#45;&gt;HomeModule -->
<g id="edge2" class="edge">
<title>HomeRoutingModule&#45;&gt;HomeModule</title>
<path fill="none" stroke="black" d="M147.78,-84.91C147.78,-84.91 147.78,-103.79 147.78,-103.79"/>
<polygon fill="black" stroke="black" points="144.28,-103.79 147.78,-113.79 151.28,-103.79 144.28,-103.79"/>
</g>
</g>
</svg>
