<?xml version="1.0" encoding="UTF-8" standalone="no"?>
<!DOCTYPE svg PUBLIC "-//W3C//DTD SVG 1.1//EN"
 "http://www.w3.org/Graphics/SVG/1.1/DTD/svg11.dtd">
<!-- Generated by graphviz version 2.47.3 (20210619.1520)
 -->
<!-- Title: dependencies Pages: 1 -->
<svg width="1058pt" height="247pt"
 viewBox="0.00 0.00 1058.00 246.80" xmlns="http://www.w3.org/2000/svg" xmlns:xlink="http://www.w3.org/1999/xlink">
<g id="graph0" class="graph" transform="scale(1 1) rotate(0) translate(4 242.8)">
<title>dependencies</title>
<polygon fill="white" stroke="transparent" points="-4,4 -4,-242.8 1054,-242.8 1054,4 -4,4"/>
<text text-anchor="middle" x="525" y="-8.2" font-family="sans-serif" font-size="14.00">dependencies</text>
<g id="clust1" class="cluster">
<title>cluster_AppModule</title>
<polygon fill="none" stroke="black" stroke-dasharray="1,5" points="8,-32.8 8,-230.8 1042,-230.8 1042,-32.8 8,-32.8"/>
</g>
<g id="clust2" class="cluster">
<title>cluster_AppModule_declarations</title>
<polygon fill="none" stroke="black" points="168,-40.8 168,-92.8 1034,-92.8 1034,-40.8 168,-40.8"/>
</g>
<g id="clust9" class="cluster">
<title>cluster_AppModule_imports</title>
<polygon fill="none" stroke="black" points="16,-40.8 16,-92.8 160,-92.8 160,-40.8 16,-40.8"/>
</g>
<g id="clust11" class="cluster">
<title>cluster_AppModule_bootstrap</title>
<polygon fill="none" stroke="black" points="475,-170.8 475,-222.8 599,-222.8 599,-170.8 475,-170.8"/>
</g>
<!-- AppComponent -->
<g id="node1" class="node">
<title>AppComponent</title>
<polygon fill="#ffffb3" stroke="black" points="1025.94,-84.8 920.06,-84.8 920.06,-48.8 1025.94,-48.8 1025.94,-84.8"/>
<text text-anchor="middle" x="973" y="-62.6" font-family="Times,serif" font-size="14.00">AppComponent</text>
</g>
<!-- AppModule -->
<g id="node7" class="node">
<title>AppModule</title>
<polygon fill="#8dd3c7" stroke="black" points="578.66,-149.8 575.66,-153.8 554.66,-153.8 551.66,-149.8 495.34,-149.8 495.34,-113.8 578.66,-113.8 578.66,-149.8"/>
<text text-anchor="middle" x="537" y="-127.6" font-family="Times,serif" font-size="14.00">AppModule</text>
</g>
<!-- AppComponent&#45;&gt;AppModule -->
<g id="edge1" class="edge">
<title>AppComponent&#45;&gt;AppModule</title>
<path fill="none" stroke="black" d="M973,-85.09C973,-107.01 973,-140.8 973,-140.8 973,-140.8 588.81,-140.8 588.81,-140.8"/>
<polygon fill="black" stroke="black" points="588.81,-137.3 578.81,-140.8 588.81,-144.3 588.81,-137.3"/>
</g>
<!-- BreadcrumbComponent -->
<g id="node2" class="node">
<title>BreadcrumbComponent</title>
<polygon fill="#ffffb3" stroke="black" points="902.03,-84.8 751.97,-84.8 751.97,-48.8 902.03,-48.8 902.03,-84.8"/>
<text text-anchor="middle" x="827" y="-62.6" font-family="Times,serif" font-size="14.00">BreadcrumbComponent</text>
</g>
<!-- BreadcrumbComponent&#45;&gt;AppModule -->
<g id="edge2" class="edge">
<title>BreadcrumbComponent&#45;&gt;AppModule</title>
<path fill="none" stroke="black" d="M827,-84.91C827,-104.14 827,-131.8 827,-131.8 827,-131.8 588.86,-131.8 588.86,-131.8"/>
<polygon fill="black" stroke="black" points="588.86,-128.3 578.86,-131.8 588.86,-135.3 588.86,-128.3"/>
</g>
<!-- FooterComponent -->
<g id="node3" class="node">
<title>FooterComponent</title>
<polygon fill="#ffffb3" stroke="black" points="733.88,-84.8 616.12,-84.8 616.12,-48.8 733.88,-48.8 733.88,-84.8"/>
<text text-anchor="middle" x="675" y="-62.6" font-family="Times,serif" font-size="14.00">FooterComponent</text>
</g>
<!-- FooterComponent&#45;&gt;AppModule -->
<g id="edge3" class="edge">
<title>FooterComponent&#45;&gt;AppModule</title>
<path fill="none" stroke="black" d="M675,-84.83C675,-101.2 675,-122.8 675,-122.8 675,-122.8 588.78,-122.8 588.78,-122.8"/>
<polygon fill="black" stroke="black" points="588.78,-119.3 578.78,-122.8 588.78,-126.3 588.78,-119.3"/>
</g>
<!-- HeaderComponent -->
<g id="node4" class="node">
<title>HeaderComponent</title>
<polygon fill="#ffffb3" stroke="black" points="597.74,-84.8 476.26,-84.8 476.26,-48.8 597.74,-48.8 597.74,-84.8"/>
<text text-anchor="middle" x="537" y="-62.6" font-family="Times,serif" font-size="14.00">HeaderComponent</text>
</g>
<!-- HeaderComponent&#45;&gt;AppModule -->
<g id="edge4" class="edge">
<title>HeaderComponent&#45;&gt;AppModule</title>
<path fill="none" stroke="black" d="M537,-84.91C537,-84.91 537,-103.79 537,-103.79"/>
<polygon fill="black" stroke="black" points="533.5,-103.79 537,-113.79 540.5,-103.79 533.5,-103.79"/>
</g>
<!-- ScrollTopComponent -->
<g id="node5" class="node">
<title>ScrollTopComponent</title>
<polygon fill="#ffffb3" stroke="black" points="457.82,-84.8 320.18,-84.8 320.18,-48.8 457.82,-48.8 457.82,-84.8"/>
<text text-anchor="middle" x="389" y="-62.6" font-family="Times,serif" font-size="14.00">ScrollTopComponent</text>
</g>
<!-- ScrollTopComponent&#45;&gt;AppModule -->
<g id="edge5" class="edge">
<title>ScrollTopComponent&#45;&gt;AppModule</title>
<path fill="none" stroke="black" d="M389,-84.83C389,-101.2 389,-122.8 389,-122.8 389,-122.8 484.99,-122.8 484.99,-122.8"/>
<polygon fill="black" stroke="black" points="484.99,-126.3 494.99,-122.8 484.98,-119.3 484.99,-126.3"/>
</g>
<!-- SettingsComponent -->
<g id="node6" class="node">
<title>SettingsComponent</title>
<polygon fill="#ffffb3" stroke="black" points="302.45,-84.8 175.55,-84.8 175.55,-48.8 302.45,-48.8 302.45,-84.8"/>
<text text-anchor="middle" x="239" y="-62.6" font-family="Times,serif" font-size="14.00">SettingsComponent</text>
</g>
<!-- SettingsComponent&#45;&gt;AppModule -->
<g id="edge6" class="edge">
<title>SettingsComponent&#45;&gt;AppModule</title>
<path fill="none" stroke="black" d="M239,-84.91C239,-104.14 239,-131.8 239,-131.8 239,-131.8 485.25,-131.8 485.25,-131.8"/>
<polygon fill="black" stroke="black" points="485.25,-135.3 495.25,-131.8 485.25,-128.3 485.25,-135.3"/>
</g>
<!-- AppComponent  -->
<g id="node9" class="node">
<title>AppComponent </title>
<polygon fill="#80b1d3" stroke="black" points="591.44,-214.8 482.56,-214.8 482.56,-178.8 591.44,-178.8 591.44,-214.8"/>
<text text-anchor="middle" x="537" y="-192.6" font-family="Times,serif" font-size="14.00">AppComponent </text>
</g>
<!-- AppModule&#45;&gt;AppComponent  -->
<g id="edge8" class="edge">
<title>AppModule&#45;&gt;AppComponent </title>
<path fill="none" stroke="black" stroke-dasharray="1,5" d="M537,-149.91C537,-149.91 537,-168.79 537,-168.79"/>
<polygon fill="black" stroke="black" points="533.5,-168.79 537,-178.79 540.5,-168.79 533.5,-168.79"/>
</g>
<!-- AppRoutingModule -->
<g id="node8" class="node">
<title>AppRoutingModule</title>
<polygon fill="#8dd3c7" stroke="black" points="152.27,-84.8 149.27,-88.8 128.27,-88.8 125.27,-84.8 23.73,-84.8 23.73,-48.8 152.27,-48.8 152.27,-84.8"/>
<text text-anchor="middle" x="88" y="-62.6" font-family="Times,serif" font-size="14.00">AppRoutingModule</text>
</g>
<!-- AppRoutingModule&#45;&gt;AppModule -->
<g id="edge7" class="edge">
<title>AppRoutingModule&#45;&gt;AppModule</title>
<path fill="none" stroke="black" d="M88,-85.09C88,-107.01 88,-140.8 88,-140.8 88,-140.8 485.16,-140.8 485.16,-140.8"/>
<polygon fill="black" stroke="black" points="485.16,-144.3 495.16,-140.8 485.16,-137.3 485.16,-144.3"/>
</g>
</g>
</svg>
