<?xml version="1.0" encoding="UTF-8" standalone="no"?>
<!DOCTYPE svg PUBLIC "-//W3C//DTD SVG 1.1//EN"
 "http://www.w3.org/Graphics/SVG/1.1/DTD/svg11.dtd">
<!-- Generated by graphviz version 2.47.3 (20210619.1520)
 -->
<!-- Title: dependencies Pages: 1 -->
<svg width="406pt" height="174pt"
 viewBox="0.00 0.00 406.00 173.80" xmlns="http://www.w3.org/2000/svg" xmlns:xlink="http://www.w3.org/1999/xlink">
<g id="graph0" class="graph" transform="scale(1 1) rotate(0) translate(4 169.8)">
<title>dependencies</title>
<polygon fill="white" stroke="transparent" points="-4,4 -4,-169.8 402,-169.8 402,4 -4,4"/>
<text text-anchor="middle" x="199" y="-8.2" font-family="sans-serif" font-size="14.00">dependencies</text>
<g id="clust1" class="cluster">
<title>cluster_ProjectsModule</title>
<polygon fill="none" stroke="black" stroke-dasharray="1,5" points="8,-32.8 8,-157.8 390,-157.8 390,-32.8 8,-32.8"/>
</g>
<g id="clust2" class="cluster">
<title>cluster_ProjectsModule_declarations</title>
<polygon fill="none" stroke="black" points="190,-40.8 190,-92.8 382,-92.8 382,-40.8 190,-40.8"/>
</g>
<g id="clust4" class="cluster">
<title>cluster_ProjectsModule_imports</title>
<polygon fill="none" stroke="black" points="16,-40.8 16,-92.8 182,-92.8 182,-40.8 16,-40.8"/>
</g>
<!-- ProjectsWrapperComponent -->
<g id="node1" class="node">
<title>ProjectsWrapperComponent</title>
<polygon fill="#ffffb3" stroke="black" points="373.9,-84.8 198.1,-84.8 198.1,-48.8 373.9,-48.8 373.9,-84.8"/>
<text text-anchor="middle" x="286" y="-62.6" font-family="Times,serif" font-size="14.00">ProjectsWrapperComponent</text>
</g>
<!-- ProjectsModule -->
<g id="node2" class="node">
<title>ProjectsModule</title>
<polygon fill="#8dd3c7" stroke="black" points="244.15,-149.8 241.15,-153.8 220.15,-153.8 217.15,-149.8 139.85,-149.8 139.85,-113.8 244.15,-113.8 244.15,-149.8"/>
<text text-anchor="middle" x="192" y="-127.6" font-family="Times,serif" font-size="14.00">ProjectsModule</text>
</g>
<!-- ProjectsWrapperComponent&#45;&gt;ProjectsModule -->
<g id="edge1" class="edge">
<title>ProjectsWrapperComponent&#45;&gt;ProjectsModule</title>
<path fill="none" stroke="black" d="M221.31,-84.91C221.31,-84.91 221.31,-103.79 221.31,-103.79"/>
<polygon fill="black" stroke="black" points="217.81,-103.79 221.31,-113.79 224.81,-103.79 217.81,-103.79"/>
</g>
<!-- ProjectsRoutingModule -->
<g id="node3" class="node">
<title>ProjectsRoutingModule</title>
<polygon fill="#8dd3c7" stroke="black" points="173.77,-84.8 170.77,-88.8 149.77,-88.8 146.77,-84.8 24.23,-84.8 24.23,-48.8 173.77,-48.8 173.77,-84.8"/>
<text text-anchor="middle" x="99" y="-62.6" font-family="Times,serif" font-size="14.00">ProjectsRoutingModule</text>
</g>
<!-- ProjectsRoutingModule&#45;&gt;ProjectsModule -->
<g id="edge2" class="edge">
<title>ProjectsRoutingModule&#45;&gt;ProjectsModule</title>
<path fill="none" stroke="black" d="M156.78,-84.91C156.78,-84.91 156.78,-103.79 156.78,-103.79"/>
<polygon fill="black" stroke="black" points="153.28,-103.79 156.78,-113.79 160.28,-103.79 153.28,-103.79"/>
</g>
</g>
</svg>
