<?xml version="1.0" encoding="UTF-8" standalone="no"?>
<svg
   xmlns:dc="http://purl.org/dc/elements/1.1/"
   xmlns:cc="http://creativecommons.org/ns#"
   xmlns:rdf="http://www.w3.org/1999/02/22-rdf-syntax-ns#"
   xmlns:svg="http://www.w3.org/2000/svg"
   xmlns="http://www.w3.org/2000/svg"
   xmlns:sodipodi="http://sodipodi.sourceforge.net/DTD/sodipodi-0.dtd"
   xmlns:inkscape="http://www.inkscape.org/namespaces/inkscape"
   width="72.740578mm"
   height="111.93088mm"
   viewBox="0 0 257.7422 396.60547"
   id="svg4570"
   version="1.1"
   inkscape:version="0.91 r13725"
   sodipodi:docname="Alphabet19J.svg">
  <sodipodi:namedview
     id="base"
     pagecolor="#ffffff"
     bordercolor="#666666"
     borderopacity="1.0"
     inkscape:pageopacity="0.0"
     inkscape:pageshadow="2"
     inkscape:zoom="1.3363406"
     inkscape:cx="128.8711"
     inkscape:cy="198.30274"
     inkscape:document-units="px"
     inkscape:current-layer="layer1"
     showgrid="false"
     fit-margin-top="0"
     fit-margin-left="0"
     fit-margin-right="0"
     fit-margin-bottom="0"
     inkscape:window-width="1366"
     inkscape:window-height="705"
     inkscape:window-x="-8"
     inkscape:window-y="-8"
     inkscape:window-maximized="1" />
  <g
     inkscape:label="Layer 1"
     inkscape:groupmode="layer"
     id="layer1"
     transform="translate(-233.98603,-339.77375)">
    <path
       style="fill:#000000;stroke:none"
       d="m 449.41963,339.77375 c -4.5725,3.78 -10.0356,7.44843 -16.3906,11.02343 -5.565,2.9825 -11.3238,5.5675 -17.2813,7.75 -12.12,5.1675 -25.4297,7.75 -39.9297,7.75 -5.1675,0 -10.0315,-0.3989 -14.6015,-1.1914 -4.5725,-0.795 -8.6349,-2.0889 -12.2149,-3.8789 -1.7875,-0.99 -3.6267,-2.32703 -5.5117,-4.01953 -1.8925,-1.685 -3.6298,-3.28205 -5.2148,-4.76955 -1.595,-1.49 -3.2814,-2.23437 -5.0664,-2.23437 -2.785,0 -4.1719,2.48422 -4.1719,7.44922 0,5.565 1.2925,9.93438 3.875,13.10938 2.1825,3.1825 4.6642,5.31875 7.4492,6.40625 2.78,1.095 6.2558,1.64452 10.4258,1.64452 1.3925,0 3.5786,-0.10075 6.5586,-0.30077 2.9775,-0.1975 5.3648,-0.29688 7.1523,-0.29688 2.78,0 9.8313,-1.29 21.1563,-3.875 5.1625,-1.1925 9.5319,-1.78905 13.1094,-1.78905 1.5875,0 3.1756,0.94703 4.7656,2.83203 1.5875,1.89 2.5805,3.92687 2.9805,6.10937 0,23.0475 -0.051,47.97156 -0.1485,74.78906 -0.1025,26.8175 -0.1523,55.57173 -0.1523,86.26173 0,30.69499 -0.099,46.03906 -0.2969,46.03906 0,11.7225 -0.3975,22.60279 -1.1875,32.6328 -0.795,10.03 -1.8938,19.51812 -3.2813,28.45312 -4.5725,24.83751 -18.281,44.20046 -41.121,58.10547 -20.065,12.3175 -42.6068,18.47265 -67.6368,18.47265 -12.915,0 -23.2422,-2.77875 -30.9922,-8.34373 -7.75,-5.55752 -12.1168,-13.41048 -13.1093,-23.54298 -0.2,-1.19 -0.2969,-2.97688 -0.2969,-5.35938 0,-9.1375 3.8736,-18.07391 11.6211,-26.8164 0.595,-0.5975 7.7431,-7.15296 21.4531,-19.66797 15.2925,-13.90249 33.373,-25.72342 54.2305,-35.46092 20.4575,-7.54751 40.9228,-15.09204 61.3828,-22.64455 l 5.3633,-6.55467 c 0,-2.98 -1.0924,-4.46877 -3.2774,-4.46877 -0.995,0 -7.9493,2.48422 -20.8593,7.44922 -16.49,6.3575 -31.7843,13.01095 -45.8868,19.96095 -19.4725,9.53499 -34.9668,18.97499 -46.4843,28.31249 -15.4925,12.515 -25.0266,20.46094 -28.6016,23.83594 -11.92,11.52249 -19.0745,22.05343 -21.457,31.58594 -0.4,1.38999 -0.7939,3.08389 -1.1914,5.06639 -0.4,1.98751 -0.5938,4.46673 -0.5938,7.44923 0,4.57 0.5927,8.78765 1.7852,12.66015 0.24,0.78501 0.5556,1.56517 0.8906,2.34767 l 1.2266,2.49218 c 1.2225,2.22749 2.7732,4.44032 4.7382,6.63282 5.96,6.75499 12.908,11.12828 20.8555,13.11328 5.3625,1.39 13.5061,2.08594 24.4336,2.08594 11.52,0 24.4803,-2.1836 38.8828,-6.5586 14.4,-4.365 29.2533,-10.62205 44.5508,-18.76954 10.9225,-5.5625 21.4534,-12.61125 31.5859,-21.15625 5.9575,-4.96249 13.8016,-12.31327 23.5391,-22.05077 7.545,-7.94 13.1584,-15.64484 16.8359,-23.08984 3.6725,-7.45251 5.5118,-16.13922 5.5118,-26.07421 l 0.5976,-278.90626 z m 25.625,140.34376 c -1.7875,0 -3.2762,0.55063 -4.4687,1.64063 -1.1925,1.0925 -1.7891,2.34155 -1.7891,3.72655 0,1.3925 1.7897,3.62562 5.3672,6.70312 3.5725,3.08 5.5097,5.61658 5.8047,7.60158 0.3,1.985 0.4492,4.16577 0.4492,6.55077 0,5.365 -1.2441,10.0353 -3.7266,14.0078 -2.485,3.9725 -6.6033,8.54205 -12.3633,13.70705 -3.575,2.5825 -5.9598,4.27 -7.1523,5.0625 -2.1875,1.595 -3.2773,3.08266 -3.2773,4.47264 0,0.59502 0.2956,1.4897 0.8906,2.6797 0.99,1.1925 2.1856,1.78906 3.5781,1.78906 1.79,0 4.2717,-1.2861 7.4492,-3.8711 1.3875,-1.1925 2.7819,-2.38812 4.1719,-3.57812 6.3575,-4.7675 11.5681,-10.92407 15.6406,-18.47655 4.0725,-7.5475 6.1094,-14.59485 6.1094,-21.15235 0,-3.375 -1.0948,-6.95298 -3.2773,-10.73048 -1.19,-1.9825 -2.7793,-4.16827 -4.7618,-6.55077 -2.385,-2.385 -5.272,-3.58203 -8.6445,-3.58203 z"
       id="path280"
       inkscape:connector-curvature="0" />
  </g>
</svg>
