<?xml version="1.0" encoding="UTF-8" standalone="no"?>
<!-- Created with Inkscape (http://www.inkscape.org/) -->

<svg
   xmlns:dc="http://purl.org/dc/elements/1.1/"
   xmlns:cc="http://creativecommons.org/ns#"
   xmlns:rdf="http://www.w3.org/1999/02/22-rdf-syntax-ns#"
   xmlns:svg="http://www.w3.org/2000/svg"
   xmlns="http://www.w3.org/2000/svg"
   xmlns:sodipodi="http://sodipodi.sourceforge.net/DTD/sodipodi-0.dtd"
   xmlns:inkscape="http://www.inkscape.org/namespaces/inkscape"
   width="98.390823mm"
   height="114.0321mm"
   viewBox="0 0 348.6289 404.05076"
   id="svg4556"
   version="1.1"
   inkscape:version="0.91 r13725"
   sodipodi:docname="Alphabet19Q.svg">
  <sodipodi:namedview
     id="base"
     pagecolor="#ffffff"
     bordercolor="#666666"
     borderopacity="1.0"
     inkscape:pageopacity="0.0"
     inkscape:pageshadow="2"
     inkscape:zoom="1.3117165"
     inkscape:cx="174.31444"
     inkscape:cy="202.02536"
     inkscape:document-units="px"
     inkscape:current-layer="layer1"
     showgrid="false"
     fit-margin-top="0"
     fit-margin-left="0"
     fit-margin-right="0"
     fit-margin-bottom="0"
     inkscape:window-width="1366"
     inkscape:window-height="705"
     inkscape:window-x="-8"
     inkscape:window-y="-8"
     inkscape:window-maximized="1" />
  <g
     inkscape:label="Layer 1"
     inkscape:groupmode="layer"
     id="layer1"
     transform="translate(1431.4573,195.37746)">
    <path
       style="fill:#d40000;stroke:none"
       d="m -1289.0276,-195.37746 c -17.28,0 -34.1139,1.39185 -50.5039,4.17185 -16.385,2.7825 -28.9539,6.36157 -37.6914,10.72657 -10.73,5.365 -18.5805,12.31938 -23.543,20.85938 -5.7625,9.7325 -8.6406,22.34485 -8.6406,37.83985 0,5.1675 2.1337,11.3775 6.4062,18.625 4.27,7.254999 7.7931,10.380299 10.5781,9.382799 2.78,-1.19 4.4689,-3.573425 5.0664,-7.148429 0.395,-2.7775 -1.3384,-7.05 -5.2109,-12.8125 -3.875,-5.76 -5.8125,-10.62407 -5.8125,-14.60157 0,-14.895 5.5586,-26.61765 16.6836,-35.16015 12.71,-9.7275 31.4814,-14.60155 56.3164,-14.60155 5.365,0 11.7217,0.99795 19.0742,2.98045 13.505,3.575 26.4169,9.43562 38.7344,17.57812 17.0825,11.3225 32.8764,26.62563 47.3789,45.89063 17.2825,23.242499 29.2972,44.800149 36.0547,64.660149 5.56,16.0925 9.6298,38.14095 12.2148,66.14844 1.19,11.1275 1.7891,21.15624 1.7891,30.09376 0,15.0975 -1.9884,30.39562 -5.9609,45.89062 -0.595,2.5825 0.1492,4.72124 2.2343,6.406241 2.085,1.69 4.5172,2.53516 7.3047,2.53516 3.575,0 5.956,-1.2925 7.1485,-3.875 8.3425,-15.890001 14.5995,-30.888601 18.7695,-44.996101 4.965,-16.485 7.4531,-32.77718 7.4531,-48.86718 0,-38.73499 -6.0608,-73.30279 -18.1758,-103.69529 -13.9075,-34.759999 -35.4601,-62.467829 -64.6601,-83.132829 -7.15,-4.9625 -17.3355,-8.69077 -30.543,-11.17577 -13.2125,-2.4825 -27.3698,-3.72265 -42.4648,-3.72265 z m -46.4805,92.0703 c -25.03,0 -46.4858,10.332199 -64.3633,30.992199 -21.06,24.235 -31.5859,57.71045 -31.5859,100.41794 0,11.32251 1.1956,22.34672 3.5781,33.07422 2.385,10.72751 5.7603,21.95049 10.1328,33.66798 1.3875,3.57751 5.5108,13.313131 12.3633,29.203121 6.8525,15.895 19.0709,32.38234 36.6484,49.46484 17.5825,17.08751 33.5232,28.00984 47.8282,32.77735 3.575,0.59749 7.6423,1.13921 12.2148,1.63671 4.5675,0.4925 9.7311,0.7461 15.4961,0.7461 5.365,0 9.728,-0.3989 13.1055,-1.19139 12.3175,-2.38251 28.7079,-11.02578 49.1679,-25.92579 6.75,-4.96249 15.893,-12.31327 27.418,-22.05077 -0.7975,-1.78501 -2.1908,-3.37314 -4.1758,-4.76565 -0.595,-0.39249 -1.4872,-0.89328 -2.6797,-1.48827 -9.3375,6.95499 -18.822,12.61687 -28.457,16.98437 -9.635,4.37001 -17.1311,6.55469 -22.4961,6.55469 -12.1175,0 -28.8061,-8.94031 -50.0586,-26.82031 -22.4475,-18.8675 -41.5209,-40.91843 -57.2109,-66.148441 -18.28,-29.39499 -27.4141,-56.7114 -27.4141,-81.9414 0,-33.97 6.6524,-58.99735 19.9649,-75.08985 9.93,-11.9175 21.8489,-17.8789 35.7539,-17.8789 13.1125,1.5925 23.7353,3.97735 31.8828,7.15235 10.13,3.975 18.4737,9.9364 25.0312,17.8789 6.95,10.9275 13.4072,22.79437 19.3672,35.60937 5.96,12.81 11.4231,26.86515 16.3906,42.16016 11.9175,32.18249 19.4646,52.84298 22.6446,61.98045 2.1825,7.55253 5.2633,17.38502 9.2383,29.500001 6.75,20.26252 14.8985,37.54517 24.4335,51.84766 8.3425,12.51501 17.3797,22.44938 27.1172,29.79689 7.345,5.5625 13.0069,9.4361 16.9844,11.6211 8.3425,4.7675 17.7761,7.14844 28.3086,7.14844 1.1925,-0.99 2.1816,-1.8847 2.9766,-2.67971 5.56,-5.1625 10.5259,-10.92374 14.8984,-17.28123 l 18.1758,-26.22267 0,-6.85548 c -0.995,-1.19247 -2.1867,-1.78514 -3.5742,-1.78514 -2.7825,0.59501 -5.2643,1.09328 -7.4493,1.48828 -2.1875,0.4 -4.6692,0.59374 -7.4492,0.59374 -2.385,0 -7.4043,-1.48874 -15.0468,-4.46874 -7.65,-2.97999 -13.2585,-5.1622 -16.836,-6.5547 -11.32,-4.365 -21.6533,-10.82607 -30.9883,-19.37108 -11.92,-10.92 -23.4414,-26.016561 -34.5664,-45.289061 l -52.7422,-116.50781 c -8.1475,-17.28249 -21.1537,-32.18032 -39.0312,-44.69532 -16.4925,-11.52 -31.4911,-17.285149 -44.9961,-17.285149 z m -28.9063,33.972649 c -2.9775,2.3825 -4.4648,4.36955 -4.4648,5.95705 0,0.795 0.3925,1.5928 1.1875,2.3828 0.595,0 7.5469,7.45015 20.8594,22.34765 15.6875,17.685 28.7051,34.07297 39.0351,49.16797 14.1025,20.8575 21.1563,36.85156 21.1563,47.97656 0,7.55 -1.5422,12.56438 -4.6172,15.04688 -3.0825,2.485 -4.6211,4.3178 -4.6211,5.5078 0,3.38 1.3894,5.96 4.1719,7.75 2.7775,1.785 5.7614,2.6836 8.9414,2.6836 9.335,0 15.0937,-2.48312 17.2812,-7.45312 1.39,-3.175 2.086,-12.21328 2.086,-27.11328 0,-10.325 -8.6433,-26.11642 -25.9258,-47.37892 -12.715,-15.49249 -28.9028,-32.87452 -48.5703,-52.14452 -16.8875,-16.4875 -25.7271,-24.73047 -26.5196,-24.73047 z"
       id="path232"
       inkscape:connector-curvature="0" />
  </g>
</svg>
