<?xml version="1.0" encoding="UTF-8" standalone="no"?>
<!-- Created with Inkscape (http://www.inkscape.org/) -->

<svg
   xmlns:dc="http://purl.org/dc/elements/1.1/"
   xmlns:cc="http://creativecommons.org/ns#"
   xmlns:rdf="http://www.w3.org/1999/02/22-rdf-syntax-ns#"
   xmlns:svg="http://www.w3.org/2000/svg"
   xmlns="http://www.w3.org/2000/svg"
   xmlns:sodipodi="http://sodipodi.sourceforge.net/DTD/sodipodi-0.dtd"
   xmlns:inkscape="http://www.inkscape.org/namespaces/inkscape"
   width="107.47375mm"
   height="114.39875mm"
   viewBox="0 0 380.81249 405.3499"
   id="svg4672"
   version="1.1"
   inkscape:version="0.91 r13725"
   sodipodi:docname="Alphabet19K.svg">
  <sodipodi:namedview
     id="base"
     pagecolor="#ffffff"
     bordercolor="#666666"
     borderopacity="1.0"
     inkscape:pageopacity="0.0"
     inkscape:pageshadow="2"
     inkscape:zoom="1.3075123"
     inkscape:cx="190.40625"
     inkscape:cy="202.67496"
     inkscape:document-units="px"
     inkscape:current-layer="layer1"
     showgrid="false"
     fit-margin-top="0"
     fit-margin-left="0"
     fit-margin-right="0"
     fit-margin-bottom="0"
     inkscape:window-width="1366"
     inkscape:window-height="705"
     inkscape:window-x="-8"
     inkscape:window-y="-8"
     inkscape:window-maximized="1" />
  <g
     inkscape:label="Layer 1"
     inkscape:groupmode="layer"
     id="layer1"
     transform="translate(1427.5491,164.59847)">
    <path
       style="fill:#d40000;stroke:none"
       d="m -1115.8694,-164.59847 -22.6445,16.39063 c -7.95,5.765 -15.4985,10.035 -22.6485,12.8125 -5.1675,1.99 -10.7275,3.47875 -16.6875,4.46875 -5.565,1.5925 -8.6369,3.57594 -9.2344,5.96094 1.1925,1.5925 2.7247,2.82906 4.6172,3.72656 1.8875,0.8925 4.0188,1.33985 6.4063,1.33985 1.79,-0.3975 4.2717,-1.38798 7.4492,-2.98048 6.7525,-3.375 11.9186,-4.86625 15.4961,-4.46875 5.56,1.1925 10.1281,3.87548 13.7031,8.04298 3.5775,4.1725 5.9638,9.34109 7.1563,15.49609 0.3925,1.9875 0.6906,5.019848 0.8906,9.089848 0.195,4.075 0.2969,6.20875 0.2969,6.40625 0,13.905 -4.1707,26.323587 -12.5157,37.246087 l -30.3906,39.03516 c 0,3.7724999 1.7883,5.3606299 5.3633,4.7656299 10.925,-7.5474999 22.742,-17.7724999 35.457,-30.6874999 9.135,-9.3375 18.0779,-19.17 26.8203,-29.500002 7.5476,-8.94 12.8576,-17.880313 15.9376,-26.820313 3.08,-8.9375 4.621,-19.66469 4.621,-32.17969 0,-8.3425 -2.5811,-16.39172 -7.746,-24.13672 -4.3725,-6.5575 -9.1397,-11.22282 -14.3047,-14.00782 l -8.043,0 z m -170.7422,3.57423 c -31.985,0 -60.0917,9.34171 -84.3242,28.01171 -19.27,14.9 -33.1774,32.78173 -41.7149,53.636727 -4.375,10.33 -7.7464,19.867958 -10.1289,28.605458 -3.1825,11.525 -4.7695,22.15532 -4.7695,31.88282 0,15.2999999 3.3764,28.1163999 10.1289,38.44141 8.145,12.51499 21.0558,21.35563 38.7383,26.51563 9.7275,2.98 22.6458,4.46874 38.7383,4.46874 8.5375,0 16.134,-0.29702 22.789,-0.89452 6.655,-0.595 13.3608,-1.4897 20.1133,-2.6797 12.1175,-1.7875 24.1411,-4.56874 36.0586,-8.34374 9.7275,-2.9775 21.5495,-7.34188 35.457,-13.10939 0.3975,-1.585 0.5977,-2.77922 0.5977,-3.57422 0,-3.575 -1.9909,-5.36328 -5.9609,-5.36328 -11.525,4.5725 -20.9572,8.24344 -28.3047,11.02344 -10.1275,3.77501 -18.3794,6.45939 -24.7344,8.04689 -2.98,0.795 -6.953,1.68968 -11.918,2.67968 -12.515,2.385 -24.4353,3.57812 -35.7578,3.57812 -12.12,0 -22.5451,-1.29 -31.2851,-3.875 -10.725,-3.175 -19.3708,-8.44296 -25.9258,-15.79296 -8.545,-9.1375 -15.0966,-18.4742301 -19.6641,-28.0117301 -4.57,-9.5324999 -6.8555,-19.3660899 -6.8555,-29.4960899 0,-6.3575 0.8936,-12.66687 2.6836,-18.92187 1.7875,-6.2575 4.468,-13.359688 8.043,-21.304688 12.5175,-25.627497 32.1825,-45.488747 59,-59.593747 22.645,-11.92 45.5895,-17.87892 68.832,-17.87892 8.54,0 15.093,2.48423 19.668,7.44923 4.565,4.965 6.8516,10.83062 6.8516,17.57812 0,4.97 -2.3835,11.61984 -7.1485,19.96484 -1.595,2.7825 -4.0781,6.55673 -7.4531,11.324227 -22.45,26.22 -51.0564,39.332028 -85.8164,39.332028 l -1.1875,7.44922 c 1.7875,1.5925 3.6192,2.73219 5.5117,3.42969 1.8825,0.6975 4.215,1.03906 7,1.03906 0.99,0.2 2.28,0.29688 3.875,0.29688 2.78,0 6.2558,-0.39892 10.4258,-1.19141 4.17,-0.7925 7.0545,-1.19141 8.6445,-1.19141 2.98,0 5.2566,0.70094 6.8516,2.08594 1.5875,3.18 2.6798,5.56484 3.2773,7.15234 0.5975,1.5925 0.8946,4.46812 0.8946,8.64062 l 0,58.70313 c 1.5875,0.4 3.0253,0.59375 4.3203,0.59375 l 4.3203,0 c 7.5475,0 15.4948,-1.48875 23.8398,-4.46875 2.78,-0.9925 6.2558,-2.48375 10.4258,-4.46875 l 0,-99.523438 c 8.5425,-9.73 14.7511,-18.776087 18.6211,-27.121087 3.8775,-8.34 5.8125,-17.07735 5.8125,-26.21485 0,-10.73 -5.264,-18.47469 -15.789,-23.24219 -8.345,-3.7725 -19.2738,-5.66796 -32.7813,-5.66796 z m 94.7578,115.019525 -38.1406,25.03125 c -5.1675,3.1825 -8.1475,6.36016 -8.9375,9.53516 l 9.832,-0.59375 c 5.1625,14.1049999 12.7096,36.15593 22.6446,66.14843 9.3375,28.01 15.8904,46.781415 19.6679,56.316415 7.15,18.08 15.2936,34.46656 24.4336,49.16406 17.08,25.8275 34.5614,45.29234 52.4414,58.40234 12.5125,9.1425 25.3275,15.00204 38.4375,17.58204 6.5575,0.7975 13.2138,1.5928 19.9688,2.3828 2.3825,-0.2 3.9695,-1.18906 4.7695,-2.97656 -21.4575,-17.88 -37.7511,-33.77078 -48.8711,-47.67578 -9.34,-11.7175 -17.5819,-25.37516 -24.7344,-40.97266 -7.15,-15.5925 -14.405,-31.53562 -21.75,-47.828115 -6.16,-12.71 -12.1189,-26.51656 -17.8789,-41.41406 -3.975,-10.5275 -8.2436,-23.34 -12.8086,-38.43751 -2.785,-9.5375001 -6.9606,-23.6350001 -12.5156,-42.3125 l -6.5586,-22.35156 z m -69.7265,94.16017 c -3.1775,1.195 -5.7622,1.9853 -7.7422,2.3828 -6.165,1.7875 -11.028,2.98062 -14.6055,3.57812 l -22.6445,2.6797 0.2968,146.007815 c 0,5.56498 -5.565,10.83046 -16.6875,15.79296 -7.35,3.1825 -16.0887,5.86438 -26.2187,8.04688 -5.365,1.3925 -8.7478,2.88124 -10.1328,4.46874 -0.595,0.7975 -0.8946,2.0875 -0.8946,3.875 0,4.365 1.6865,6.25376 5.0665,5.65626 4.1725,-0.7925 8.4909,-1.59032 12.9609,-2.38282 4.47,-0.7925 8.8892,-1.38516 13.2617,-1.78516 13.3075,-1.1925 23.6408,-2.03374 30.9883,-2.53124 7.3475,-0.4925 15.5905,-0.7461 24.7305,-0.7461 13.305,0 21.7531,0.14782 25.3281,0.44532 3.5775,0.2975 8.7945,0.99594 15.6445,2.08594 6.855,1.095 11.6197,2.03452 14.3047,2.83202 2.6825,0.79 4.7155,1.1914 6.1055,1.1914 5.1625,-0.595 7.7461,-2.18812 7.7461,-4.76562 0,-0.5975 -0.2971,-1.4911 -0.8946,-2.68358 -1.9875,-3.3775 -6.604,-5.31252 -13.8515,-5.81252 -7.255,-0.4925 -11.576,-0.93984 -12.961,-1.33984 -6.96,-1.9825 -11.6253,-3.57062 -14.0078,-4.76562 -4.375,-2.185 -7.8522,-5.5564 -10.4297,-10.1289 -3.575,-5.165 -5.3632,-10.13484 -5.3632,-14.90234 l 0,-147.199215 z"
       id="path272"
       inkscape:connector-curvature="0" />
  </g>
</svg>
