<?xml version="1.0" encoding="UTF-8" standalone="no"?>
<!DOCTYPE svg PUBLIC "-//W3C//DTD SVG 1.1//EN"
 "http://www.w3.org/Graphics/SVG/1.1/DTD/svg11.dtd">
<!-- Generated by graphviz version 2.47.3 (20210619.1520)
 -->
<!-- Title: dependencies Pages: 1 -->
<svg width="2522pt" height="247pt"
 viewBox="0.00 0.00 2522.00 246.80" xmlns="http://www.w3.org/2000/svg" xmlns:xlink="http://www.w3.org/1999/xlink">
<g id="graph0" class="graph" transform="scale(1 1) rotate(0) translate(4 242.8)">
<title>dependencies</title>
<polygon fill="white" stroke="transparent" points="-4,4 -4,-242.8 2518,-242.8 2518,4 -4,4"/>
<text text-anchor="middle" x="1257" y="-8.2" font-family="sans-serif" font-size="14.00">dependencies</text>
<g id="clust1" class="cluster">
<title>cluster_AppModule</title>
<polygon fill="none" stroke="black" stroke-dasharray="1,5" points="8,-32.8 8,-230.8 1042,-230.8 1042,-32.8 8,-32.8"/>
</g>
<g id="clust2" class="cluster">
<title>cluster_AppModule_declarations</title>
<polygon fill="none" stroke="black" points="168,-40.8 168,-92.8 1034,-92.8 1034,-40.8 168,-40.8"/>
</g>
<g id="clust9" class="cluster">
<title>cluster_AppModule_imports</title>
<polygon fill="none" stroke="black" points="16,-40.8 16,-92.8 160,-92.8 160,-40.8 16,-40.8"/>
</g>
<g id="clust11" class="cluster">
<title>cluster_AppModule_bootstrap</title>
<polygon fill="none" stroke="black" points="475,-170.8 475,-222.8 599,-222.8 599,-170.8 475,-170.8"/>
</g>
<g id="clust19" class="cluster">
<title>cluster_CvModule</title>
<polygon fill="none" stroke="black" stroke-dasharray="1,5" points="1050,-32.8 1050,-157.8 1374,-157.8 1374,-32.8 1050,-32.8"/>
</g>
<g id="clust20" class="cluster">
<title>cluster_CvModule_declarations</title>
<polygon fill="none" stroke="black" points="1204,-40.8 1204,-92.8 1366,-92.8 1366,-40.8 1204,-40.8"/>
</g>
<g id="clust22" class="cluster">
<title>cluster_CvModule_imports</title>
<polygon fill="none" stroke="black" points="1058,-40.8 1058,-92.8 1196,-92.8 1196,-40.8 1058,-40.8"/>
</g>
<g id="clust32" class="cluster">
<title>cluster_HomeModule</title>
<polygon fill="none" stroke="black" stroke-dasharray="1,5" points="1382,-32.8 1382,-157.8 1740,-157.8 1740,-32.8 1382,-32.8"/>
</g>
<g id="clust33" class="cluster">
<title>cluster_HomeModule_declarations</title>
<polygon fill="none" stroke="black" points="1552,-40.8 1552,-92.8 1732,-92.8 1732,-40.8 1552,-40.8"/>
</g>
<g id="clust35" class="cluster">
<title>cluster_HomeModule_imports</title>
<polygon fill="none" stroke="black" points="1390,-40.8 1390,-92.8 1544,-92.8 1544,-40.8 1390,-40.8"/>
</g>
<g id="clust45" class="cluster">
<title>cluster_ProjectsModule</title>
<polygon fill="none" stroke="black" stroke-dasharray="1,5" points="1748,-32.8 1748,-157.8 2130,-157.8 2130,-32.8 1748,-32.8"/>
</g>
<g id="clust46" class="cluster">
<title>cluster_ProjectsModule_declarations</title>
<polygon fill="none" stroke="black" points="1930,-40.8 1930,-92.8 2122,-92.8 2122,-40.8 1930,-40.8"/>
</g>
<g id="clust48" class="cluster">
<title>cluster_ProjectsModule_imports</title>
<polygon fill="none" stroke="black" points="1756,-40.8 1756,-92.8 1922,-92.8 1922,-40.8 1756,-40.8"/>
</g>
<g id="clust58" class="cluster">
<title>cluster_SettingsModule</title>
<polygon fill="none" stroke="black" stroke-dasharray="1,5" points="2138,-32.8 2138,-157.8 2506,-157.8 2506,-32.8 2138,-32.8"/>
</g>
<g id="clust59" class="cluster">
<title>cluster_SettingsModule_declarations</title>
<polygon fill="none" stroke="black" points="2320,-40.8 2320,-92.8 2498,-92.8 2498,-40.8 2320,-40.8"/>
</g>
<g id="clust61" class="cluster">
<title>cluster_SettingsModule_imports</title>
<polygon fill="none" stroke="black" points="2146,-40.8 2146,-92.8 2312,-92.8 2312,-40.8 2146,-40.8"/>
</g>
<!-- AppComponent -->
<g id="node1" class="node">
<title>AppComponent</title>
<polygon fill="#ffffb3" stroke="black" points="1025.94,-84.8 920.06,-84.8 920.06,-48.8 1025.94,-48.8 1025.94,-84.8"/>
<text text-anchor="middle" x="973" y="-62.6" font-family="Times,serif" font-size="14.00">AppComponent</text>
</g>
<!-- AppModule -->
<g id="node7" class="node">
<title>AppModule</title>
<polygon fill="#8dd3c7" stroke="black" points="578.66,-149.8 575.66,-153.8 554.66,-153.8 551.66,-149.8 495.34,-149.8 495.34,-113.8 578.66,-113.8 578.66,-149.8"/>
<text text-anchor="middle" x="537" y="-127.6" font-family="Times,serif" font-size="14.00">AppModule</text>
</g>
<!-- AppComponent&#45;&gt;AppModule -->
<g id="edge1" class="edge">
<title>AppComponent&#45;&gt;AppModule</title>
<path fill="none" stroke="black" d="M973,-85.09C973,-107.01 973,-140.8 973,-140.8 973,-140.8 588.81,-140.8 588.81,-140.8"/>
<polygon fill="black" stroke="black" points="588.81,-137.3 578.81,-140.8 588.81,-144.3 588.81,-137.3"/>
</g>
<!-- BreadcrumbComponent -->
<g id="node2" class="node">
<title>BreadcrumbComponent</title>
<polygon fill="#ffffb3" stroke="black" points="902.03,-84.8 751.97,-84.8 751.97,-48.8 902.03,-48.8 902.03,-84.8"/>
<text text-anchor="middle" x="827" y="-62.6" font-family="Times,serif" font-size="14.00">BreadcrumbComponent</text>
</g>
<!-- BreadcrumbComponent&#45;&gt;AppModule -->
<g id="edge2" class="edge">
<title>BreadcrumbComponent&#45;&gt;AppModule</title>
<path fill="none" stroke="black" d="M827,-84.91C827,-104.14 827,-131.8 827,-131.8 827,-131.8 588.86,-131.8 588.86,-131.8"/>
<polygon fill="black" stroke="black" points="588.86,-128.3 578.86,-131.8 588.86,-135.3 588.86,-128.3"/>
</g>
<!-- FooterComponent -->
<g id="node3" class="node">
<title>FooterComponent</title>
<polygon fill="#ffffb3" stroke="black" points="733.88,-84.8 616.12,-84.8 616.12,-48.8 733.88,-48.8 733.88,-84.8"/>
<text text-anchor="middle" x="675" y="-62.6" font-family="Times,serif" font-size="14.00">FooterComponent</text>
</g>
<!-- FooterComponent&#45;&gt;AppModule -->
<g id="edge3" class="edge">
<title>FooterComponent&#45;&gt;AppModule</title>
<path fill="none" stroke="black" d="M675,-84.83C675,-101.2 675,-122.8 675,-122.8 675,-122.8 588.78,-122.8 588.78,-122.8"/>
<polygon fill="black" stroke="black" points="588.78,-119.3 578.78,-122.8 588.78,-126.3 588.78,-119.3"/>
</g>
<!-- HeaderComponent -->
<g id="node4" class="node">
<title>HeaderComponent</title>
<polygon fill="#ffffb3" stroke="black" points="597.74,-84.8 476.26,-84.8 476.26,-48.8 597.74,-48.8 597.74,-84.8"/>
<text text-anchor="middle" x="537" y="-62.6" font-family="Times,serif" font-size="14.00">HeaderComponent</text>
</g>
<!-- HeaderComponent&#45;&gt;AppModule -->
<g id="edge4" class="edge">
<title>HeaderComponent&#45;&gt;AppModule</title>
<path fill="none" stroke="black" d="M537,-84.91C537,-84.91 537,-103.79 537,-103.79"/>
<polygon fill="black" stroke="black" points="533.5,-103.79 537,-113.79 540.5,-103.79 533.5,-103.79"/>
</g>
<!-- ScrollTopComponent -->
<g id="node5" class="node">
<title>ScrollTopComponent</title>
<polygon fill="#ffffb3" stroke="black" points="457.82,-84.8 320.18,-84.8 320.18,-48.8 457.82,-48.8 457.82,-84.8"/>
<text text-anchor="middle" x="389" y="-62.6" font-family="Times,serif" font-size="14.00">ScrollTopComponent</text>
</g>
<!-- ScrollTopComponent&#45;&gt;AppModule -->
<g id="edge5" class="edge">
<title>ScrollTopComponent&#45;&gt;AppModule</title>
<path fill="none" stroke="black" d="M389,-84.83C389,-101.2 389,-122.8 389,-122.8 389,-122.8 484.99,-122.8 484.99,-122.8"/>
<polygon fill="black" stroke="black" points="484.99,-126.3 494.99,-122.8 484.98,-119.3 484.99,-126.3"/>
</g>
<!-- SettingsComponent -->
<g id="node6" class="node">
<title>SettingsComponent</title>
<polygon fill="#ffffb3" stroke="black" points="302.45,-84.8 175.55,-84.8 175.55,-48.8 302.45,-48.8 302.45,-84.8"/>
<text text-anchor="middle" x="239" y="-62.6" font-family="Times,serif" font-size="14.00">SettingsComponent</text>
</g>
<!-- SettingsComponent&#45;&gt;AppModule -->
<g id="edge6" class="edge">
<title>SettingsComponent&#45;&gt;AppModule</title>
<path fill="none" stroke="black" d="M239,-84.91C239,-104.14 239,-131.8 239,-131.8 239,-131.8 485.25,-131.8 485.25,-131.8"/>
<polygon fill="black" stroke="black" points="485.25,-135.3 495.25,-131.8 485.25,-128.3 485.25,-135.3"/>
</g>
<!-- AppComponent  -->
<g id="node9" class="node">
<title>AppComponent </title>
<polygon fill="#80b1d3" stroke="black" points="591.44,-214.8 482.56,-214.8 482.56,-178.8 591.44,-178.8 591.44,-214.8"/>
<text text-anchor="middle" x="537" y="-192.6" font-family="Times,serif" font-size="14.00">AppComponent </text>
</g>
<!-- AppModule&#45;&gt;AppComponent  -->
<g id="edge8" class="edge">
<title>AppModule&#45;&gt;AppComponent </title>
<path fill="none" stroke="black" stroke-dasharray="1,5" d="M537,-149.91C537,-149.91 537,-168.79 537,-168.79"/>
<polygon fill="black" stroke="black" points="533.5,-168.79 537,-178.79 540.5,-168.79 533.5,-168.79"/>
</g>
<!-- AppRoutingModule -->
<g id="node8" class="node">
<title>AppRoutingModule</title>
<polygon fill="#8dd3c7" stroke="black" points="152.27,-84.8 149.27,-88.8 128.27,-88.8 125.27,-84.8 23.73,-84.8 23.73,-48.8 152.27,-48.8 152.27,-84.8"/>
<text text-anchor="middle" x="88" y="-62.6" font-family="Times,serif" font-size="14.00">AppRoutingModule</text>
</g>
<!-- AppRoutingModule&#45;&gt;AppModule -->
<g id="edge7" class="edge">
<title>AppRoutingModule&#45;&gt;AppModule</title>
<path fill="none" stroke="black" d="M88,-85.09C88,-107.01 88,-140.8 88,-140.8 88,-140.8 485.16,-140.8 485.16,-140.8"/>
<polygon fill="black" stroke="black" points="485.16,-144.3 495.16,-140.8 485.16,-137.3 485.16,-144.3"/>
</g>
<!-- CvWrapperComponent -->
<g id="node10" class="node">
<title>CvWrapperComponent</title>
<polygon fill="#ffffb3" stroke="black" points="1358.13,-84.8 1211.87,-84.8 1211.87,-48.8 1358.13,-48.8 1358.13,-84.8"/>
<text text-anchor="middle" x="1285" y="-62.6" font-family="Times,serif" font-size="14.00">CvWrapperComponent</text>
</g>
<!-- CvModule -->
<g id="node11" class="node">
<title>CvModule</title>
<polygon fill="#8dd3c7" stroke="black" points="1243.89,-149.8 1240.89,-153.8 1219.89,-153.8 1216.89,-149.8 1168.11,-149.8 1168.11,-113.8 1243.89,-113.8 1243.89,-149.8"/>
<text text-anchor="middle" x="1206" y="-127.6" font-family="Times,serif" font-size="14.00">CvModule</text>
</g>
<!-- CvWrapperComponent&#45;&gt;CvModule -->
<g id="edge9" class="edge">
<title>CvWrapperComponent&#45;&gt;CvModule</title>
<path fill="none" stroke="black" d="M1227.81,-84.91C1227.81,-84.91 1227.81,-103.79 1227.81,-103.79"/>
<polygon fill="black" stroke="black" points="1224.31,-103.79 1227.81,-113.79 1231.31,-103.79 1224.31,-103.79"/>
</g>
<!-- CvRoutingModule -->
<g id="node12" class="node">
<title>CvRoutingModule</title>
<polygon fill="#8dd3c7" stroke="black" points="1187.5,-84.8 1184.5,-88.8 1163.5,-88.8 1160.5,-84.8 1066.5,-84.8 1066.5,-48.8 1187.5,-48.8 1187.5,-84.8"/>
<text text-anchor="middle" x="1127" y="-62.6" font-family="Times,serif" font-size="14.00">CvRoutingModule</text>
</g>
<!-- CvRoutingModule&#45;&gt;CvModule -->
<g id="edge10" class="edge">
<title>CvRoutingModule&#45;&gt;CvModule</title>
<path fill="none" stroke="black" d="M1177.78,-84.91C1177.78,-84.91 1177.78,-103.79 1177.78,-103.79"/>
<polygon fill="black" stroke="black" points="1174.28,-103.79 1177.78,-113.79 1181.28,-103.79 1174.28,-103.79"/>
</g>
<!-- HomeWrapperComponent -->
<g id="node13" class="node">
<title>HomeWrapperComponent</title>
<polygon fill="#ffffb3" stroke="black" points="1724.01,-84.8 1559.99,-84.8 1559.99,-48.8 1724.01,-48.8 1724.01,-84.8"/>
<text text-anchor="middle" x="1642" y="-62.6" font-family="Times,serif" font-size="14.00">HomeWrapperComponent</text>
</g>
<!-- HomeModule -->
<g id="node14" class="node">
<title>HomeModule</title>
<polygon fill="#8dd3c7" stroke="black" points="1600.76,-149.8 1597.76,-153.8 1576.76,-153.8 1573.76,-149.8 1507.24,-149.8 1507.24,-113.8 1600.76,-113.8 1600.76,-149.8"/>
<text text-anchor="middle" x="1554" y="-127.6" font-family="Times,serif" font-size="14.00">HomeModule</text>
</g>
<!-- HomeWrapperComponent&#45;&gt;HomeModule -->
<g id="edge11" class="edge">
<title>HomeWrapperComponent&#45;&gt;HomeModule</title>
<path fill="none" stroke="black" d="M1580.31,-84.91C1580.31,-84.91 1580.31,-103.79 1580.31,-103.79"/>
<polygon fill="black" stroke="black" points="1576.81,-103.79 1580.31,-113.79 1583.81,-103.79 1576.81,-103.79"/>
</g>
<!-- HomeRoutingModule -->
<g id="node15" class="node">
<title>HomeRoutingModule</title>
<polygon fill="#8dd3c7" stroke="black" points="1536.38,-84.8 1533.38,-88.8 1512.38,-88.8 1509.38,-84.8 1397.62,-84.8 1397.62,-48.8 1536.38,-48.8 1536.38,-84.8"/>
<text text-anchor="middle" x="1467" y="-62.6" font-family="Times,serif" font-size="14.00">HomeRoutingModule</text>
</g>
<!-- HomeRoutingModule&#45;&gt;HomeModule -->
<g id="edge12" class="edge">
<title>HomeRoutingModule&#45;&gt;HomeModule</title>
<path fill="none" stroke="black" d="M1521.78,-84.91C1521.78,-84.91 1521.78,-103.79 1521.78,-103.79"/>
<polygon fill="black" stroke="black" points="1518.28,-103.79 1521.78,-113.79 1525.28,-103.79 1518.28,-103.79"/>
</g>
<!-- ProjectsWrapperComponent -->
<g id="node16" class="node">
<title>ProjectsWrapperComponent</title>
<polygon fill="#ffffb3" stroke="black" points="2113.9,-84.8 1938.1,-84.8 1938.1,-48.8 2113.9,-48.8 2113.9,-84.8"/>
<text text-anchor="middle" x="2026" y="-62.6" font-family="Times,serif" font-size="14.00">ProjectsWrapperComponent</text>
</g>
<!-- ProjectsModule -->
<g id="node17" class="node">
<title>ProjectsModule</title>
<polygon fill="#8dd3c7" stroke="black" points="1984.15,-149.8 1981.15,-153.8 1960.15,-153.8 1957.15,-149.8 1879.85,-149.8 1879.85,-113.8 1984.15,-113.8 1984.15,-149.8"/>
<text text-anchor="middle" x="1932" y="-127.6" font-family="Times,serif" font-size="14.00">ProjectsModule</text>
</g>
<!-- ProjectsWrapperComponent&#45;&gt;ProjectsModule -->
<g id="edge13" class="edge">
<title>ProjectsWrapperComponent&#45;&gt;ProjectsModule</title>
<path fill="none" stroke="black" d="M1961.31,-84.91C1961.31,-84.91 1961.31,-103.79 1961.31,-103.79"/>
<polygon fill="black" stroke="black" points="1957.81,-103.79 1961.31,-113.79 1964.81,-103.79 1957.81,-103.79"/>
</g>
<!-- ProjectsRoutingModule -->
<g id="node18" class="node">
<title>ProjectsRoutingModule</title>
<polygon fill="#8dd3c7" stroke="black" points="1913.77,-84.8 1910.77,-88.8 1889.77,-88.8 1886.77,-84.8 1764.23,-84.8 1764.23,-48.8 1913.77,-48.8 1913.77,-84.8"/>
<text text-anchor="middle" x="1839" y="-62.6" font-family="Times,serif" font-size="14.00">ProjectsRoutingModule</text>
</g>
<!-- ProjectsRoutingModule&#45;&gt;ProjectsModule -->
<g id="edge14" class="edge">
<title>ProjectsRoutingModule&#45;&gt;ProjectsModule</title>
<path fill="none" stroke="black" d="M1896.78,-84.91C1896.78,-84.91 1896.78,-103.79 1896.78,-103.79"/>
<polygon fill="black" stroke="black" points="1893.28,-103.79 1896.78,-113.79 1900.28,-103.79 1893.28,-103.79"/>
</g>
<!-- ChangeColorsComponent -->
<g id="node19" class="node">
<title>ChangeColorsComponent</title>
<polygon fill="#ffffb3" stroke="black" points="2489.93,-84.8 2328.07,-84.8 2328.07,-48.8 2489.93,-48.8 2489.93,-84.8"/>
<text text-anchor="middle" x="2409" y="-62.6" font-family="Times,serif" font-size="14.00">ChangeColorsComponent</text>
</g>
<!-- SettingsModule -->
<g id="node20" class="node">
<title>SettingsModule</title>
<polygon fill="#8dd3c7" stroke="black" points="2371.16,-149.8 2368.16,-153.8 2347.16,-153.8 2344.16,-149.8 2266.84,-149.8 2266.84,-113.8 2371.16,-113.8 2371.16,-149.8"/>
<text text-anchor="middle" x="2319" y="-127.6" font-family="Times,serif" font-size="14.00">SettingsModule</text>
</g>
<!-- ChangeColorsComponent&#45;&gt;SettingsModule -->
<g id="edge15" class="edge">
<title>ChangeColorsComponent&#45;&gt;SettingsModule</title>
<path fill="none" stroke="black" d="M2349.81,-84.91C2349.81,-84.91 2349.81,-103.79 2349.81,-103.79"/>
<polygon fill="black" stroke="black" points="2346.31,-103.79 2349.81,-113.79 2353.31,-103.79 2346.31,-103.79"/>
</g>
<!-- SettingsRoutingModule -->
<g id="node21" class="node">
<title>SettingsRoutingModule</title>
<polygon fill="#8dd3c7" stroke="black" points="2303.78,-84.8 2300.78,-88.8 2279.78,-88.8 2276.78,-84.8 2154.22,-84.8 2154.22,-48.8 2303.78,-48.8 2303.78,-84.8"/>
<text text-anchor="middle" x="2229" y="-62.6" font-family="Times,serif" font-size="14.00">SettingsRoutingModule</text>
</g>
<!-- SettingsRoutingModule&#45;&gt;SettingsModule -->
<g id="edge16" class="edge">
<title>SettingsRoutingModule&#45;&gt;SettingsModule</title>
<path fill="none" stroke="black" d="M2285.28,-84.91C2285.28,-84.91 2285.28,-103.79 2285.28,-103.79"/>
<polygon fill="black" stroke="black" points="2281.78,-103.79 2285.28,-113.79 2288.78,-103.79 2281.78,-103.79"/>
</g>
</g>
</svg>
